<!-- icon666.com - MILLIONS vector ICONS FREE --><svg viewBox="-31 0 463 464" xmlns="http://www.w3.org/2000/svg" fill="#B6F09C"><path d="m160.5 184c-8.835938 0-16 7.164062-16 16s7.164062 16 16 16h16v-16c0-8.835938-7.164062-16-16-16zm0 0"></path><path d="m200.5 80c-57.394531.050781-106.71875 40.734375-117.683594 97.074219-10.964844 56.335937 19.496094 112.550781 72.683594 134.125 6.785156 2.769531 13.816406 4.886719 21 6.328125v-85.527344h-16c-17.671875 0-32-14.328125-32-32s14.328125-32 32-32 32 14.328125 32 32v16h16v-16c0-17.671875 14.328125-32 32-32s32 14.328125 32 32-14.328125 32-32 32h-16v85.527344c7.171875-1.421875 14.191406-3.527344 20.960938-6.289063 53.234374-21.535156 83.746093-77.769531 72.785156-134.140625-10.960938-56.371094-60.320313-97.074218-117.746094-97.097656zm0 0"></path><path d="m192.5 319.585938c5.328125.351562 10.671875.351562 16 0v-87.585938h-16zm0 0"></path><path d="m256.5 200c0-8.835938-7.164062-16-16-16s-16 7.164062-16 16v16h16c8.835938 0 16-7.164062 16-16zm0 0"></path><path d="m160.5 400c-4.417969 0-8 3.582031-8 8s3.582031 8 8 8h80c4.417969 0 8-3.582031 8-8s-3.582031-8-8-8zm0 0"></path><path d="m160.5 368c-4.417969 0-8 3.582031-8 8s3.582031 8 8 8h80c4.417969 0 8-3.582031 8-8s-3.582031-8-8-8zm0 0"></path><path d="m176.5 440c0 13.253906 10.746094 24 24 24s24-10.746094 24-24v-8h-48zm0 0"></path><path d="m152.5 344c0 4.417969 3.582031 8 8 8h80c4.417969 0 8-3.582031 8-8s-3.582031-8-8-8h-80c-4.417969 0-8 3.582031-8 8zm0 0"></path><path d="m200.5 48c4.417969 0 8-3.582031 8-8v-32c0-4.417969-3.582031-8-8-8s-8 3.582031-8 8v32c0 4.417969 3.582031 8 8 8zm0 0"></path><path d="m81.707031 92.519531c2.007813 2.082031 4.984375 2.914063 7.78125 2.183594 2.796875-.734375 4.980469-2.917969 5.714844-5.714844.730469-2.796875-.101563-5.773437-2.183594-7.78125l-22.632812-22.632812c-3.136719-3.03125-8.128907-2.988281-11.214844.097656s-3.128906 8.078125-.097656 11.214844zm0 0"></path><path d="m40.5 192h-32c-4.417969 0-8 3.582031-8 8s3.582031 8 8 8h32c4.417969 0 8-3.582031 8-8s-3.582031-8-8-8zm0 0"></path><path d="m81.707031 307.480469-22.632812 22.632812c-2.078125 2.007813-2.910157 4.980469-2.179688 7.777344s2.917969 4.984375 5.714844 5.714844 5.769531-.101563 7.777344-2.179688l22.632812-22.632812c2.082031-2.007813 2.914063-4.984375 2.183594-7.78125-.734375-2.796875-2.917969-4.980469-5.714844-5.714844-2.796875-.730469-5.773437.101563-7.78125 2.183594zm0 0"></path><path d="m319.292969 307.480469c-2.007813-2.082031-4.984375-2.914063-7.78125-2.183594-2.796875.734375-4.980469 2.917969-5.714844 5.714844-.730469 2.796875.101563 5.773437 2.183594 7.78125l22.632812 22.632812c2.007813 2.078125 4.980469 2.910157 7.777344 2.179688s4.984375-2.917969 5.714844-5.714844-.101563-5.769531-2.179688-7.777344zm0 0"></path><path d="m392.5 192h-32c-4.417969 0-8 3.582031-8 8s3.582031 8 8 8h32c4.417969 0 8-3.582031 8-8s-3.582031-8-8-8zm0 0"></path><path d="m330.613281 58.574219-22.632812 22.632812c-2.082031 2.007813-2.914063 4.984375-2.183594 7.78125.734375 2.796875 2.917969 4.980469 5.714844 5.714844 2.796875.730469 5.773437-.101563 7.78125-2.183594l22.632812-22.632812c2.078125-2.007813 2.910157-4.980469 2.179688-7.777344s-2.917969-4.984375-5.714844-5.714844-5.769531.101563-7.777344 2.179688zm0 0"></path></svg>
